<?xml version="1.0" encoding="utf-8"?>
<!-- Generator: Adobe Illustrator 16.0.0, SVG Export Plug-In . SVG Version: 6.00 Build 0)  -->
<!DOCTYPE svg PUBLIC "-//W3C//DTD SVG 1.1//EN" "http://www.w3.org/Graphics/SVG/1.1/DTD/svg11.dtd">
<svg version="1.1" id="Layer_1" xmlns="http://www.w3.org/2000/svg" xmlns:xlink="http://www.w3.org/1999/xlink" x="0px" y="0px"
	 width="1366px" height="768px" viewBox="0 0 1366 768" enable-background="new 0 0 1366 768" xml:space="preserve">
<path fill-rule="evenodd" clip-rule="evenodd" fill="#94D5DD" d="M1366-23.536c0.196-0.753-204.485-68.188-392.477-61.479
	C786.671-78.348,821.205,80.385,737,165.464c-83.868,84.739-95.234-114.556-234.241-73.006
	C342.94,140.23,182.192,333.458,120.558,242.939C62.505,157.677,36.716-29.189-0.108-69.525C-25.307-97.128-2,515.465-2,515.465
	l1368-124V-23.536z"/>
<path fill-rule="evenodd" clip-rule="evenodd" fill="none" d="M1378.5,151.5c0.196-0.753-204.485-68.187-392.477-61.479
	C799.171,96.688,833.705,255.42,749.5,340.5c-83.868,84.739-95.234-114.556-234.241-73.005
	c-159.818,47.771-320.567,240.999-382.201,150.48C75.005,332.713,49.216,145.847,12.392,105.51
	C-12.807,77.908,10.5,690.5,10.5,690.5l1368-124V151.5z"/>
<path fill-rule="evenodd" clip-rule="evenodd" fill="#CC3F5D" d="M1366,145.475c0.196-0.753-204.485-68.187-392.477-61.479
	C786.671,90.662,821.205,249.395,737,334.475c-83.868,84.739-95.234-114.556-234.241-73.005
	C342.94,309.24,182.192,502.468,120.558,411.949C62.505,326.688,36.716,139.821-0.108,99.484C-25.307,71.882-2,684.475-2,684.475
	l1368-124V145.475z"/>
<path fill-rule="evenodd" clip-rule="evenodd" fill="#39385C" d="M1366,352c0,0-29.397-82.726-218.597-80
	c-189.2,2.726-332.229,184.432-417.966,269s-186.705-132.451-322.835-90c-160.984,50.202-242.12,260.238-301.018,167.475
	C46.921,526.079,22.32,217.628-15.411,215c-37.731-2.627-3.036,553-3.036,553L1366,767V352z"/>
</svg>
