<?xml version="1.0" standalone="no"?>
<!DOCTYPE svg PUBLIC "-//W3C//DTD SVG 20010904//EN"
 "http://www.w3.org/TR/2001/REC-SVG-20010904/DTD/svg10.dtd">
<svg version="1.0" xmlns="http://www.w3.org/2000/svg"
 width="500.000000pt" height="500.000000pt" viewBox="0 0 500.000000 500.000000"
 preserveAspectRatio="xMidYMid meet">
<metadata>
Created by potrace 1.11, written by Peter Selinger 2001-2013
</metadata>
<g transform="translate(0.000000,500.000000) scale(0.100000,-0.100000)"
fill="#000000" stroke="none">
<path d="M2930 3953 c-97 -13 -157 -30 -239 -69 -166 -78 -321 -195 -486 -365
-199 -206 -336 -398 -457 -641 -158 -319 -195 -410 -243 -591 -46 -180 -63
-274 -71 -408 -17 -288 51 -450 224 -532 67 -32 67 -32 232 -32 179 1 228 10
417 76 278 98 644 286 914 470 69 47 99 74 113 102 32 67 3 137 -69 161 -53
19 -73 11 -221 -86 -474 -310 -980 -511 -1214 -483 -129 16 -145 45 -145 260
0 174 16 276 76 477 48 163 234 553 335 705 195 293 451 539 679 654 114 57
198 72 269 47 68 -23 81 -52 79 -176 -1 -59 -13 -187 -27 -285 -18 -122 -26
-220 -26 -312 l0 -135 33 -36 c41 -45 96 -55 144 -25 60 37 67 59 69 210 2 80
11 190 24 266 30 190 38 413 16 489 -34 117 -119 202 -235 235 -68 20 -148 30
-191 24z"/>
</g>
</svg>
