<?xml version="1.0" encoding="utf-8"?>
<!-- Generator: Adobe Illustrator 16.0.0, SVG Export Plug-In . SVG Version: 6.00 Build 0)  -->
<!DOCTYPE svg PUBLIC "-//W3C//DTD SVG 1.1//EN" "http://www.w3.org/Graphics/SVG/1.1/DTD/svg11.dtd">
<svg version="1.1" id="Layer_1" xmlns="http://www.w3.org/2000/svg" xmlns:xlink="http://www.w3.org/1999/xlink" x="0px" y="0px"
	 width="367.39px" height="185px" viewBox="0 0 1048.818 524.41" enable-background="new 0 0 1048.818 524.41"
	 xml:space="preserve">
<g>
	<g>
		<path fill="#F1F1F1" d="M237.348,168.254c11.876-8.057,20.997-20.023,28.841-31.851c8.749-13.189,16.33-28.058,19.794-43.586
			c2.964-13.286,2.198-28.392-9.552-37.176c-11.437-8.549-29.793-7.215-42.396-2.192c-14.489,5.775-26.622,16.321-37.037,27.715
			c-12.507,13.683-22.943,29.326-31.732,45.61c-16.428,30.439-30.439,67.896-25.3,103.041c2.203,15.062,9.248,27.863,21.518,36.977
			c13.836,10.277,31.16,8.101,45.794,1.029c16.151-7.805,29.73-21.031,42.409-33.443c10.951-10.721,22.333-23.828,34.262-31.795
			c0.928-0.619,1.888-1.187,2.861-1.73c0.423-0.236,3.306-1.498,1.45-0.762c-3.075-3.076-6.15-6.15-9.226-9.227
			c-2.191,7.712-3.388,16.092,0.452,23.479c3.241,6.234,10.158,8.533,16.663,9.188c14.129,1.424,29.32-4.956,42.604-8.922
			c3.039-0.908,6.09-1.773,9.174-2.515c1.307-0.313,2.624-0.58,3.947-0.812c2.035-0.355-1.589,0.16,0.336-0.047
			c0.684-0.073,1.37-0.097,2.057-0.103c12.542-0.11,25.255,2.356,37.543,4.575c27.588,4.981,55.644,11.621,83.848,8.613
			c9.442-1.007,18.645-3.131,27.465-6.663c3.792-1.519,6.415-4.948,5.238-9.226c-0.992-3.608-5.424-6.761-9.226-5.238
			c-26.248,10.512-54.524,6.943-81.616,2.082c-13.774-2.472-27.481-5.32-41.355-7.201c-9.523-1.293-19.346-2.818-28.901-1.148
			c-13.945,2.438-27.081,8.377-41.021,10.984c-2.564,0.479-4.682,0.735-8.045,0.721c-0.685-0.002-1.367-0.051-2.049-0.102
			c-2.16-0.16,1.495,0.293-0.542-0.099c-0.59-0.114-1.166-0.287-1.74-0.464c-1.225-0.376,1.027,0.626-0.763-0.407
			c-0.316-0.183-0.156,0.022-0.379-0.307c-0.215-0.318-0.896-1.958-0.25-0.287c-0.229-0.592-0.363-1.218-0.5-1.835
			c0.369,1.662-0.025-0.594-0.037-0.842c-0.039-0.812,0.012-1.625,0.057-2.434c0.091-1.612,0.656-3.881,1.182-5.873
			c0.107-0.377,0.214-0.754,0.321-1.131c1.438-5.059-3.763-11.392-9.226-9.227c-13.595,5.389-24.226,17.302-34.376,27.403
			c-12.642,12.581-25.143,25.752-39.95,35.833c-6.412,4.365-12.896,7.839-20.361,9.558c-5.78,1.331-11.826,0.556-17.356-2.522
			c-6.111-3.403-9.908-8.044-12.868-13.471c-2.453-4.496-4.4-11.961-4.978-17.182c-1.788-16.146,1.382-32.428,5.917-47.871
			c5.248-17.869,13.038-34.912,22.38-50.997c8.813-15.173,19.235-29.497,31.84-41.749c9.584-9.316,20.421-17.348,33.189-19.484
			c-1.02,0.125-0.844,0.108,0.526-0.051c1.109-0.125,2.223-0.199,3.336-0.271c1.696-0.11,3.396-0.108,5.093-0.065
			c3.002,0.076,4.315,0.312,7.252,1.18c3.592,1.062,5.495,2.679,7.276,6.165c0.357,0.772,0.354,0.748-0.012-0.072
			c0.235,0.592,0.417,1.205,0.598,1.815c0.314,1.055,0.511,2.142,0.685,3.227c-0.255-1.589,0.051,1.7,0.064,2.177
			c0.034,1.232-0.028,2.467-0.107,3.695c-0.152,2.388-0.412,3.68-1.086,6.705c-0.701,3.141-1.66,6.221-2.71,9.26
			c-4.146,11.991-10.784,23.408-18.09,33.9c-3.274,4.701-6.635,8.904-10.567,13.204c-1.752,1.917-3.593,3.75-5.501,5.511
			c-0.86,0.795-1.752,1.555-2.653,2.302c-1.695,1.404,1.155-0.837-0.54,0.427c-0.489,0.365-0.993,0.708-1.497,1.051
			C221.823,160.7,229.319,173.702,237.348,168.254L237.348,168.254z"/>
	</g>
</g>
<g>
	<g>
		<path fill="#F1F1F1" d="M658.63,130.698c0.815-6.534-0.157-14.211-5.56-18.678c-5.625-4.65-12.533-4.734-19.416-3.657
			c-15.104,2.364-29.881,11.536-42.374,19.89c-10.504,7.021-19.468,14.201-25.833,25.212c-7.215,12.48-12.577,26.251-16.578,40.072
			c-6.415,22.157-13.258,62.107,16.007,71.212c16.312,5.074,37.164-3.224,50.627-12.013c18.568-12.121,30.542-31.501,38.423-51.787
			c7.946-20.458,11.387-42.961,11.461-64.846c0.026-7.819-9.933-9.76-13.976-3.785c-6.009,8.879-8.774,20.269-10.549,30.69
			c-2.082,12.224-2.986,25.738,1.115,37.657c4.764,13.847,19.095,21.44,33.384,19.591c15.654-2.027,28.057-12.386,42.628-17.462
			c-3.165-2.411-6.329-4.821-9.494-7.231c-0.168,6.688-2.153,13.182-3.787,19.627c-1.841,7.268,7.119,12.615,12.536,7.297
			c13.458-13.212,29.965-19.35,47.376-25.578c9.103-3.258,16.578-8.059,24.463-13.582c8.154-5.712,16.475-11.684,26.203-14.316
			c-3.075-3.074-6.151-6.15-9.227-9.225c-3.221,10.443-7.779,20.431-11.909,30.533c-4.737,11.587-8.556,23.569-12.234,35.527
			c-8.012,26.041-14.032,52.655-19.295,79.372c-10.497,53.293-17.767,107.21-30.886,159.972c4.569-0.597,9.139-1.194,13.708-1.791
			c-3.61-7.528-5.114-15.89-7.351-23.885c-2.603-9.302-17.075-5.346-14.465,3.988c2.612,9.336,4.646,18.673,8.864,27.467
			c2.848,5.938,12.216,4.208,13.708-1.791c13.117-52.756,20.465-106.669,30.886-159.973c5.227-26.734,11.368-53.299,19.294-79.371
			c3.482-11.455,7.182-22.919,11.631-34.038c4.255-10.634,9.132-21.062,12.514-32.024c1.707-5.533-3.844-10.682-9.227-9.225
			c-19.663,5.319-33.276,21.675-52.15,28.428c-19.395,6.939-37.548,14.217-52.511,28.906c4.179,2.432,8.357,4.864,12.536,7.297
			c1.965-7.754,4.12-15.568,4.322-23.615c0.117-4.653-4.919-8.826-9.494-7.232c-12.208,4.253-22.863,12.047-35.178,15.943
			c-9.724,3.076-19.982,0.244-23.004-9.499c-2.84-9.158-1.866-19.717-0.283-29.014c1.5-8.812,3.751-18.372,8.826-25.873
			c-4.658-1.262-9.316-2.523-13.976-3.785c-0.134,39.192-12.098,88.797-50.05,108.073c-7.334,3.725-16.4,6.496-24.061,6.873
			c-3.709,0.182-4.235,0.123-7.412-0.766c-1.842-0.515-3.603-1.615-4.594-2.512c-0.435-0.393-0.833-0.825-1.229-1.256
			c-1.328-1.443,0.866,1.268-0.295-0.33c-0.712-0.98-1.299-2.045-1.847-3.121c-0.121-0.237-0.895-2.131-0.248-0.505
			c-0.239-0.601-0.438-1.214-0.639-1.827c-0.489-1.498-0.83-3.041-1.125-4.586c-0.767-4.008-0.607-12.213,0.046-18.082
			c1.406-12.621,6.384-28.729,11.421-40.653c2.549-6.036,5.438-11.94,8.753-17.593c0.676-1.151,1.385-2.283,2.108-3.405
			c0.339-0.526,2.583-3.606,1.13-1.79c1.442-1.803,3.24-3.344,4.981-4.846c10.201-8.793,24.352-17.359,37.716-23.153
			c2.489-1.079,5.912-2.203,8.856-2.991c1.468-0.393,2.959-0.684,4.46-0.918c-1.632,0.255,0.562,0.006,0.756-0.006
			c0.847-0.053,1.695-0.024,2.541,0.024c0.673,0.038,1.229,0.201,1.921,0.938c-1.258-1.338-0.247-0.246,0.02,0.234
			c-0.878-1.58-0.061-0.08,0.077,0.389c0.386,1.305,0.308,1.301,0.215,3.746c-0.033,0.889-0.148,1.774-0.259,2.656
			c-0.508,4.066,3.796,7.5,7.5,7.5C655.602,138.198,658.125,134.753,658.63,130.698L658.63,130.698z"/>
	</g>
</g>
<g>
	<g>
		<path fill="#F1F1F1" d="M737.336,326.375c14.955-23.546,36.438-44.084,58.405-61.023c12.148-9.367,25.176-17.791,39.201-24.066
			c10.49-4.693,23.48-8.253,34.464-6.059c-1.746-1.746-3.492-3.492-5.238-5.238c1.757,9.352-1.688,18.887-3.474,27.979
			c-1.991,10.143-1.816,19.839,2.879,29.219c1.09,2.178,4.029,3.913,6.476,3.715c9.929-0.807,17.862-5.189,25.222-11.707
			c6.592-5.84,11.879-13.254,19.143-18.317c8.118-5.658,16.994-4.311,25.926-1.38c11.617,3.811,22.566,9.045,35.115,8.432
			c9.627-0.471,9.673-15.473,0-15c-11.484,0.561-21.861-4.855-32.516-8.352c-10.826-3.553-21.971-3.809-32.355,1.146
			c-7.979,3.807-14.163,10.984-20.182,17.24c-5.555,5.773-11.898,12.251-20.353,12.938c2.159,1.238,4.317,2.477,6.476,3.714
			c-3.996-7.984-1.612-16.954,0.251-25.191c2.147-9.497,3.676-18.739,1.857-28.422c-0.446-2.372-2.886-4.769-5.238-5.238
			c-29.887-5.972-60.237,12.929-83.089,30.016c-24.996,18.691-49.091,41.527-65.921,68.025
			C719.182,326.997,732.167,334.514,737.336,326.375L737.336,326.375z"/>
	</g>
</g>
</svg>
